<svg width="152" height="152" viewBox="0 0 152 152" fill="none" xmlns="http://www.w3.org/2000/svg">
<circle cx="76" cy="76" r="76" fill="#00A939"/>
<path d="M46 73.1067C47.8352 70.5374 53.4326 69.473 56.736 74.7584L61.1404 82.191C63.8933 82.191 69.3989 80.5393 71.8764 86.8708C73.007 89.7601 72.6698 92.2842 71.8764 94.2331M46 73.6573L63.3427 101.736V111.646" stroke="white" stroke-width="2.5" stroke-linecap="round" stroke-linejoin="round"/>
<path d="M66.9211 72.2809V55.1798C66.9211 52.5952 64.8259 50.5 62.2413 50.5V50.5C59.6567 50.5 57.5615 52.5952 57.5615 55.1798V76.1348" stroke="white" stroke-width="2.5" stroke-linecap="round"/>
<path d="M76.2804 67.3258V49.1798C76.2804 46.5952 74.1852 44.5 71.6007 44.5V44.5C69.0161 44.5 66.9209 46.5952 66.9209 49.1798V67.3258" stroke="white" stroke-width="2.5" stroke-linecap="round"/>
<path d="M85.6408 72.2809V54.6798C85.6408 52.0952 83.5456 50 80.961 50V50C78.3765 50 76.2812 52.0952 76.2812 54.6798V72.2809" stroke="white" stroke-width="2.5" stroke-linecap="round"/>
<path d="M85.6406 72.2809V61.1798C85.6406 58.5952 87.7358 56.5 90.3204 56.5V56.5C92.905 56.5 95.0002 58.5952 95.0002 61.1798V86.3202C95.0002 89.6236 93.5687 96.836 87.8429 99.2584V110.82" stroke="white" stroke-width="2.5" stroke-linecap="round" stroke-linejoin="round"/>
<path d="M104.999 30.7144V51.2858" stroke="white" stroke-width="2.5" stroke-linecap="round" stroke-linejoin="round"/>
<path d="M111.647 33.9868H100.926C99.9605 33.9868 99.0344 34.3562 98.3516 35.0138C97.6688 35.6714 97.2852 36.5633 97.2852 37.4933C97.2852 38.4233 97.6688 39.3152 98.3516 39.9728C99.0344 40.6304 99.9605 40.9998 100.926 40.9998H109.073C110.038 40.9998 110.964 41.3692 111.647 42.0268C112.33 42.6844 112.714 43.5763 112.714 44.5063C112.714 45.4363 112.33 46.3282 111.647 46.9858C110.964 47.6434 110.038 48.0128 109.073 48.0128H97.6364" stroke="white" stroke-width="2.5" stroke-linecap="round" stroke-linejoin="round"/>
</svg>
